<svg width="155" height="22" viewBox="0 0 155 22" fill="none" xmlns="http://www.w3.org/2000/svg">
<path d="M8.31721 17.439L12.1843 5.57452H16.3889L10.4656 21.6125H6.0154L0 5.57452H4.45017L8.31721 17.439Z" fill="black"/>
<path d="M21.5764 22C18.4152 22 15.6223 20.2114 15.6223 17.29C15.6223 13.5041 20.0111 12.3713 26.4869 11.6558V11.3875C26.4869 8.91328 25.1058 8.04878 23.3871 8.04878C21.7605 8.04878 20.4101 8.88347 20.318 10.6423H16.3589C16.6658 7.48238 19.3666 5.15718 23.602 5.15718C27.5304 5.15718 30.7222 6.79675 30.7222 12.2222C30.7222 12.729 30.6609 14.8455 30.6609 16.3062C30.6609 18.8401 30.845 20.271 31.1519 21.6125H27.2542C27.1314 21.1057 27.0393 20.3902 26.978 19.6152C25.8117 21.2846 24.0623 22 21.5764 22ZM26.6097 14.2791C21.8833 14.7561 19.9804 15.2927 19.9804 17.0813C19.9804 18.2439 20.9319 19.1978 22.8347 19.1978C25.4741 19.1978 26.6097 17.7967 26.6097 15.4715V14.2791Z" fill="black"/>
<path d="M42.6291 10.4038C42.3222 9.06233 41.0331 8.1084 39.0996 8.1084C37.5344 8.1084 36.4295 8.6748 36.4295 9.65854C36.4295 10.523 37.074 11.1789 38.6393 11.5068L40.849 11.9837C44.1329 12.6992 46.9258 13.5041 46.9258 16.813C46.9258 20.0325 43.5191 22 39.7748 22C35.7236 22 32.6546 19.9729 32.2556 16.3062H36.3375C36.583 17.8564 37.7185 19.019 39.8976 19.019C41.7083 19.019 42.8746 18.3631 42.8746 17.2005C42.8746 16.0081 41.5856 15.5312 40.1738 15.2331L37.7185 14.7263C34.6188 14.1003 32.5625 12.8482 32.5625 9.92683C32.5625 7.03523 35.7543 5.15718 39.3145 5.15718C42.7518 5.15718 46.0358 6.70732 46.5882 10.4038H42.6291Z" fill="black"/>
<path d="M52.8889 0V3.81572H48.6536V0H52.8889ZM52.8889 5.57452V21.6125H48.6536V5.57452H52.8889Z" fill="black"/>
<path d="M60.0006 21.6125H55.7652V0H60.0006V21.6125Z" fill="black"/>
<path d="M67.1122 0V3.81572H62.8769V0H67.1122ZM67.1122 5.57452V21.6125H62.8769V5.57452H67.1122Z" fill="black"/>
<path d="M74.2238 0V3.81572H69.9885V0H74.2238ZM74.2238 5.57452V21.6125H69.9885V5.57452H74.2238Z" fill="black"/>
<path d="M87.3147 22C84.1536 22 81.3607 20.2114 81.3607 17.29C81.3607 13.5041 85.7495 12.3713 92.2253 11.6558V11.3875C92.2253 8.91328 90.8442 8.04878 89.1255 8.04878C87.4989 8.04878 86.1485 8.88347 86.0564 10.6423H82.0973C82.4042 7.48238 85.105 5.15718 89.3403 5.15718C93.2688 5.15718 96.4606 6.79675 96.4606 12.2222C96.4606 12.729 96.3992 14.8455 96.3992 16.3062C96.3992 18.8401 96.5834 20.271 96.8903 21.6125H92.9925C92.8698 21.1057 92.7777 20.3902 92.7163 19.6152C91.5501 21.2846 89.8007 22 87.3147 22ZM92.348 14.2791C87.6217 14.7561 85.7188 15.2927 85.7188 17.0813C85.7188 18.2439 86.6702 19.1978 88.5731 19.1978C91.2125 19.1978 92.348 17.7967 92.348 15.4715V14.2791Z" fill="black"/>
<path d="M103.303 21.6125H99.0681V0H103.303V21.6125Z" fill="black"/>
<path d="M109.31 14.7263C109.525 17.4688 111.489 18.8103 113.484 18.8103C114.773 18.8103 116.093 18.3631 116.952 16.9621H121.31C120.42 19.3469 117.996 22 113.515 22C108.205 22 105.106 18.1545 105.106 13.5339C105.106 8.76423 108.512 5.2168 113.392 5.2168C118.487 5.2168 121.679 9.06233 121.494 14.7263H109.31ZM109.372 11.8943H117.198C117.106 9.18157 115.141 8.22764 113.361 8.22764C111.765 8.22764 109.709 9.21138 109.372 11.8943Z" fill="black"/>
<path d="M126.882 14.7263C127.097 17.4688 129.061 18.8103 131.056 18.8103C132.345 18.8103 133.665 18.3631 134.524 16.9621H138.882C137.992 19.3469 135.567 22 131.087 22C125.777 22 122.677 18.1545 122.677 13.5339C122.677 8.76423 126.084 5.2168 130.964 5.2168C136.058 5.2168 139.25 9.06233 139.066 14.7263H126.882ZM126.943 11.8943H134.769C134.677 9.18157 132.713 8.22764 130.933 8.22764C129.337 8.22764 127.281 9.21138 126.943 11.8943Z" fill="black"/>
<path d="M146.928 17.439L150.795 5.57452H155L149.077 21.6125H144.626L138.611 5.57452H143.061L146.928 17.439Z" fill="black"/>
</svg>
